<svg xmlns="http://www.w3.org/2000/svg"><symbol id="assignment" viewBox="0 0 256 256"><path d="M218.3 24.8h-53.92a38.55 38.55 0 0 0-72.76 0H37.7a25.88 25.88 0 0 0-25.8 25.8v180.6A25.88 25.88 0 0 0 37.7 257h180.6a25.88 25.88 0 0 0 25.8-25.8V50.6a25.88 25.88 0 0 0-25.8-25.8zm-90.3 0a12.9 12.9 0 1 1-12.9 12.9A12.94 12.94 0 0 1 128 24.8zm25.8 180.6H63.5v-25.8h90.3zm38.7-51.6h-129V128h129zm0-51.6h-129V76.4h129z"/></symbol><symbol id="ai" viewBox="0 0 256 256"><path d="M115.21 123.62c1 2.78 1.81 5.44 2.45 7.68h-27.1c1.6-4.48 3.21-9.49 4.7-15 1.7-5.33 3.3-10.66 4.9-15.78a128.32 128.32 0 0 0 3.62-13.76h.22c.75 2.56 1.5 5.33 2.35 8.32s1.82 6.19 2.87 9.49 2 6.51 3.1 9.82 1.93 6.35 2.89 9.23z"/><path d="M210.66 3.19H45.33A45.31 45.31 0 0 0 0 48.46v159a45.31 45.31 0 0 0 45.26 45.34h165.4A45.3 45.3 0 0 0 256 207.55v-159a45.31 45.31 0 0 0-45.26-45.36zm-53.91 176.32h-22.3a1.59 1.59 0 0 1-1.7-1.18L124 153H84.32l-8.1 25a1.87 1.87 0 0 1-2 1.5H54.16c-1.17 0-1.48-.64-1.17-1.91l34.35-98.84c.32-1.06.64-2.23 1.07-3.52a37.57 37.57 0 0 0 .64-6.94 1.06 1.06 0 0 1 .86-1.17h27.62c.86 0 1.28.32 1.39.85l38.94 109.83c.33 1.18 0 1.71-1.06 1.71zm36.25-1.59c0 1.16-.43 1.7-1.39 1.7h-20.88a1.48 1.48 0 0 1-1.61-1.35 1.36 1.36 0 0 1 0-.35V95.78c0-1.07.43-1.5 1.39-1.5h21.17c1 0 1.39.53 1.39 1.5zm-2.23-96.32a12.52 12.52 0 0 1-9.7 3.73 13.15 13.15 0 0 1-9.49-3.73 13.84 13.84 0 0 1-3.58-9.81 12.52 12.52 0 0 1 3.85-9.5 13.65 13.65 0 0 1 9.49-3.73 12.75 12.75 0 0 1 9.7 3.73 14.66 14.66 0 0 1-.21 19.31z"/></symbol><symbol id="checkmark" viewBox="0 0 256 256"><path fill="none" stroke="#000" stroke-miterlimit="10" stroke-width="35" d="M225.72 62.85l-130.3 130.3L30.27 128"/></symbol><symbol id="calendar" viewBox="0 0 256 256"><path d="M221.09 23.27h-11.64V0h-23.27v23.27H69.82V0H46.55v23.27H34.91a23.35 23.35 0 0 0-23.27 23.28v186.18A23.34 23.34 0 0 0 34.91 256h186.18a23.34 23.34 0 0 0 23.27-23.27V46.55a23.35 23.35 0 0 0-23.27-23.28zm0 209.46H34.91V81.45h186.18z"/></symbol><symbol id="clock" viewBox="0 0 256 256"><path d="M128 0a128 128 0 1 0 128 128A128 128 0 0 0 128 0zm65.6 164.33a12.27 12.27 0 0 1-16.68 4.79l-54.74-30.32h-.07a12.25 12.25 0 0 1-6.38-10.8V36.82a12.27 12.27 0 0 1 24.54 0v83.94l48.54 26.88a12.29 12.29 0 0 1 4.79 16.69z"/></symbol><symbol id="close" viewBox="0 0 256 256"><path d="M27.15 256L0 228.85 100.85 128 0 27.15 27.15 0 142 114.81a18.62 18.62 0 0 1 .84 26.32c-.27.29-.55.56-.84.83z"/><path d="M228.85 0L256 27.15 155.15 128 256 228.85 228.85 256 114 141.19a18.62 18.62 0 0 1-.84-26.32c.27-.29.55-.56.84-.83zM86 143L229.5-.5"/></symbol><symbol id="css" viewBox="0 0 256 256"><path d="M16 0l20.4 230.4L128 256l91.57-25.6L240 0zm170 191.06l-58 16h-.05L69.88 191l-4.09-45.38H94.2l2.11 23.56 31.54 8.52 31.58-8.51 4.3-39.22-99.32.26-2.83-26.82 104.53-1.22 2.11-28.68-109.44.31-1.84-26.67h141.83z"/></symbol><symbol id="cart" viewBox="0 0 256 256"><circle cx="70.94" cy="221.27" r="19.86"/><circle cx="214.72" cy="221.27" r="19.86"/><path d="M256 31H51.64L48 14.86H0v20.68h31.48l29 127.71a7.22 7.22 0 0 1-.87 5.35l-11.82 19.45a5.81 5.81 0 0 0 5 8.83h190.32v-20.67H79.2l2.45-4a7.26 7.26 0 0 0 .87-5.35l-1.89-8.32L256 136.86z"/></symbol><symbol id="delete" viewBox="0 0 256 256"><path d="M64 202.67A21.39 21.39 0 0 0 85.33 224h85.34A21.39 21.39 0 0 0 192 202.67v-128H64zm138.67-160h-37.34L154.67 32h-53.34L90.67 42.67H53.33V64h149.34V42.67z"/></symbol><symbol id="down-indicator" viewBox="0 0 256 256"><path d="M0 81.23l27.15-27.15L128 154.93 228.85 54.08 256 81.23 141.19 196a18.63 18.63 0 0 1-26.32.84c-.29-.27-.56-.55-.83-.84z"/></symbol><symbol id="design-service" viewBox="0 0 256 256"><path d="M188.28 121l22.32-22.3-53.32-53.33L135 67.7 76.08 9a28.49 28.49 0 0 0-40.24 0l-27 27a28.48 28.48 0 0 0 0 40.24L67.55 135 0 202.65V256h53.33L121 188.29 179.74 247c13.51 13.5 31.72 8.53 40.25 0l27-27a28.51 28.51 0 0 0 0-40.25zm-100.4-6.25L29 56l26.89-27L74 47.08 57.17 64l20 20 16.97-16.87 20.62 20.62zM199.94 227l-58.73-58.73 27-27 20.61 20.62-16.92 16.92 20.1 20 16.93-16.92L227 200zm51.9-169.54a14.15 14.15 0 0 0 0-20.05L218.57 4.13c-6.69-6.68-15.93-4.12-20.06 0l-26 26 53.33 53.32z"/></symbol><symbol id="docs" viewBox="0 0 256 256"><path d="M160 208H0v32h160zm96-128H0v32h256zM0 176h256v-32H0zM0 16v32h256V16z"/></symbol><symbol id="email" viewBox="0 0 256 256"><path d="M128 170.02L0 84.7v121.16h256V84.7l-128 85.32z"/><path d="M256 50.14v18.69l-128 85.32L0 68.83V50.14h256z"/></symbol><symbol id="download" viewBox="0 0 256 256"><path d="M233.41 90.35h-60.23V0H82.82v90.35H22.59L128 195.76zM22.59 225.88V256h210.82v-30.12z"/></symbol><symbol id="facebook" viewBox="0 0 256 256"><path d="M256 128a128 128 0 1 0-148 126.44V165H75.5v-37H108V99.8c0-32.08 19.11-49.8 48.35-49.8A196.86 196.86 0 0 1 185 52.5V84h-16.14C153 84 148 93.87 148 104v24h35.5l-5.68 37H148v89.44A128 128 0 0 0 256 128z"/></symbol><symbol id="fax" viewBox="0 0 256 256"><path d="M224.77 205.77a18.3 18.3 0 1 1-18.3-18.3 18.31 18.31 0 0 1 18.3 18.3M256 234V87.75s0-18.3-18.3-18.3h-31.23v58.08c0 18.26-18.3 18.26-18.3 18.26H67.83c-18.3 0-18.3-18.26-18.3-18.26V69.45H18.3S0 69.45 0 87.75V234s0 18.3 18.3 18.3h219.4s18.3 0 18.3-18.3"/><path d="M189.07 107.52V22s0-18.3-18.3-18.3H85.21s-18.3 0-18.3 18.3v85.55s0 18.31 18.3 18.31h85.6s18.26 0 18.26-18.31"/></symbol><symbol id="flickr" viewBox="0 0 256 256"><path fill-rule="evenodd" d="M217.35 0H38.66A38.64 38.64 0 0 0 0 38.67v178.67A38.64 38.64 0 0 0 38.66 256h178.69A38.65 38.65 0 0 0 256 217.34V38.67A38.65 38.65 0 0 0 217.35 0zM114.61 124.26c0 24.28-18.11 44-40.46 44s-40.46-19.68-40.46-44 18.12-44 40.46-44 40.46 19.74 40.46 44zm103.49-.57c0 23.95-18.64 43.37-41.63 43.37s-41.63-19.42-41.63-43.37 18.64-43.38 41.63-43.38 41.63 19.42 41.63 43.38z"/></symbol><symbol id="full-screen" viewBox="0 0 256 256"><path d="M104.98 64L64 104.98 23.02 64 0 87.02V0h87.02L64 23.02 104.98 64zM64 151.02L23.02 192 0 168.98V256h87.02L64 232.98 104.98 192 64 151.02zm128 0L151.02 192 192 232.98 168.98 256H256v-87.02L232.98 192 192 151.02zM168.98 0L192 23.02 151.02 64 192 104.98 232.98 64 256 87.02V0h-87.02z"/></symbol><symbol id="github" viewBox="0 0 256 256"><path fill-rule="evenodd" d="M128 3.16a128 128 0 0 0-40.46 249.46c6.4 1.17 8.74-2.78 8.74-6.17 0-3-.11-11.09-.18-21.77-35.6 7.73-43.1-17.16-43.1-17.16-5.82-14.79-14.22-18.72-14.22-18.72-11.62-7.94.88-7.78.88-7.78 12.85.9 19.61 13.19 19.61 13.19 11.42 19.56 30 13.91 37.25 10.63 1.16-8.27 4.47-13.91 8.13-17.11-28.43-3.23-58.31-14.21-58.31-63.26a49.49 49.49 0 0 1 13.17-34.35c-1.32-3.24-5.71-16.25 1.25-33.87 0 0 10.75-3.44 35.2 13.12a121.28 121.28 0 0 1 64.09 0c24.44-16.56 35.17-13.12 35.17-13.12 7 17.62 2.59 30.63 1.27 33.87a49.43 49.43 0 0 1 13.16 34.35c0 49.17-29.93 60-58.44 63.16 4.59 4 8.69 11.77 8.69 23.71 0 17.11-.16 30.91-.16 35.11 0 3.42 2.3 7.4 8.8 6.15A128 128 0 0 0 128 3.16z"/></symbol><symbol id="home" viewBox="0 0 256 256"><path d="M128 50.53l-90.95 80.84v117.89h60.63v-49.89a7.37 7.37 0 0 1 7.38-7.37h45.88a7.37 7.37 0 0 1 7.38 7.37v49.89H219V131.37zM70.74 40.42L37.05 70.74V23.58h33.69v16.84z"/><path d="M244.63 134.66L128 30.32 11.71 134.37 0 121.26 128 6.74l128 114.52-11.37 13.4z"/></symbol><symbol id="instgram" viewBox="0 0 256 256"><path d="M128 23.06c34.18 0 38.23.13 51.72.75 12.48.57 19.26 2.65 23.77 4.41a39.58 39.58 0 0 1 14.72 9.57 39.58 39.58 0 0 1 9.57 14.72c1.76 4.51 3.84 11.29 4.41 23.77.62 13.49.75 17.54.75 51.72s-.13 38.23-.75 51.72c-.57 12.48-2.65 19.26-4.41 23.77a42.33 42.33 0 0 1-24.29 24.29c-4.51 1.76-11.29 3.84-23.77 4.41-13.49.62-17.54.75-51.72.75s-38.23-.13-51.72-.75c-12.48-.57-19.26-2.65-23.77-4.41a39.58 39.58 0 0 1-14.72-9.57 39.58 39.58 0 0 1-9.57-14.72c-1.76-4.51-3.84-11.29-4.41-23.77-.62-13.49-.75-17.54-.75-51.72s.13-38.23.75-51.72c.57-12.48 2.65-19.28 4.41-23.77a39.58 39.58 0 0 1 9.57-14.72 39.58 39.58 0 0 1 14.72-9.57c4.49-1.76 11.29-3.84 23.77-4.41 13.49-.62 17.54-.75 51.72-.75M128 0C93.24 0 88.88.15 75.23.77S52.3 3.56 44.15 6.72a62.88 62.88 0 0 0-22.67 14.76A62.88 62.88 0 0 0 6.72 44.15C3.56 52.3 1.39 61.6.77 75.23S0 93.24 0 128s.15 39.12.77 52.77 2.79 22.93 5.95 31.08a62.88 62.88 0 0 0 14.76 22.67 62.88 62.88 0 0 0 22.67 14.76c8.15 3.16 17.45 5.33 31.08 5.95s18 .77 52.77.77 39.12-.15 52.77-.77 22.93-2.79 31.08-5.95a65.42 65.42 0 0 0 37.43-37.43c3.16-8.15 5.33-17.45 5.95-31.08s.77-18 .77-52.77-.15-39.12-.77-52.77-2.79-22.93-5.95-31.08a62.88 62.88 0 0 0-14.76-22.67 62.88 62.88 0 0 0-22.67-14.76C203.7 3.56 194.4 1.39 180.77.77S162.76 0 128 0z"/><path d="M128 62.27A65.73 65.73 0 1 0 193.73 128 65.73 65.73 0 0 0 128 62.27zm0 108.4A42.67 42.67 0 1 1 170.67 128 42.68 42.68 0 0 1 128 170.67z"/><circle cx="196.33" cy="59.67" r="15.36"/></symbol><symbol id="html" viewBox="0 0 256 256"><path d="M19.12 0a3.86 3.86 0 0 0-3.9 4.26l19.84 222.49a6.65 6.65 0 0 0 4.5 5.41l84.17 23.37a18.24 18.24 0 0 0 8.25 0l84.43-23.41a6.65 6.65 0 0 0 4.5-5.41L240.78 4.26a3.84 3.84 0 0 0-3.9-4.26zm179.42 51c-.19 2-2.22 24.57-2.24 24.57H92.21a3.85 3.85 0 0 0-3.93 3.78v.48l1.84 20.48a4.77 4.77 0 0 0 4.66 4.26H190a3.44 3.44 0 0 1 3.48 3.38v.42c-.19 2-7.1 79.47-7.17 80.79s-2.05 2.91-4.33 3.54l-49.74 13.79-4.24 1.19s-1.91-.5-4.18-1.13L74 192.74a6.66 6.66 0 0 1-4.51-5.41l-3.2-36a3.84 3.84 0 0 1 3.9-4.26h19.89a4.79 4.79 0 0 1 4.66 4.26L96 165.44a6.61 6.61 0 0 0 4.51 5.38l23.29 6.28 4.14 1.12 4.15-1.12 23.34-6.3a6.63 6.63 0 0 0 4.5-5.38l2.53-28.21A3.85 3.85 0 0 0 159 133a3.62 3.62 0 0 0-.47 0h-89.6a4.78 4.78 0 0 1-4.66-4.26s-6.74-75.54-6.93-77.63a3.67 3.67 0 0 1 3.52-3.81h133.78a3.66 3.66 0 0 1 3.89 3.42v.32z"/></symbol><symbol id="left-indicator" viewBox="0 0 256 256"><path d="M174.77 0l27.15 27.15L101.07 128l100.85 100.85L174.77 256 60 141.19a18.63 18.63 0 0 1-.84-26.32c.27-.29.55-.56.84-.83z"/></symbol><symbol id="js" viewBox="0 0 256 256"><path d="M0 0v256h256V0zm134.93 219.25a30.2 30.2 0 0 1-19.32 15.13 46.45 46.45 0 0 1-34.22-4.2A38.47 38.47 0 0 1 67.28 214q9.73-6 19.45-11.93a11.78 11.78 0 0 1 1.36 2.19 20.56 20.56 0 0 0 8.84 9.21 13.45 13.45 0 0 0 16.72-5 101.36 101.36 0 0 0 1.46-28.93c0-20.69.1-41.23.1-61.91h24c0 22 .11 44 0 65.92a74.36 74.36 0 0 1-4.28 35.7zm99.33-6.77c-8.33 28.48-54.72 29.4-73.28 10.58a43.38 43.38 0 0 1-8.71-11.85c9.86-5.67 9.86-5.67 19.46-11.26a27.4 27.4 0 0 0 18.68 14.2c11.76 1.44 23.56-2.6 20.93-15.09-2.73-10.24-24.06-12.68-38.6-23.55a33.51 33.51 0 0 1-6.7-46.92l.61-.8a34.25 34.25 0 0 1 18.16-10.71l7.55-1a36.08 36.08 0 0 1 30.17 11 46.85 46.85 0 0 1 6.15 8.27c-7.71 4.91-7.69 4.87-18.74 12a17.87 17.87 0 0 0-10.41-9.67 12.28 12.28 0 0 0-16.07 6.62 3.65 3.65 0 0 0-.14.35 13.11 13.11 0 0 0 .46 7.49c2.61 5.94 11.34 8.52 19.18 12.12 22.53 9.15 30.18 19 32 30.64a35.17 35.17 0 0 1-.74 17.64z"/></symbol><symbol id="library" viewBox="0 0 256 256"><path d="M25.6 51.2H0v179.2A25.68 25.68 0 0 0 25.6 256h179.2v-25.6H25.6zM230.4 0H76.8a25.68 25.68 0 0 0-25.6 25.6v153.6a25.68 25.68 0 0 0 25.6 25.6h153.6a25.68 25.68 0 0 0 25.6-25.6V25.6A25.68 25.68 0 0 0 230.4 0zm-12.8 115.2h-128V89.6h128zm-51.2 51.2H89.6v-25.6h76.8zM217.6 64h-128V38.4h128z"/></symbol><symbol id="link" viewBox="0 0 256 256"><path d="M24.32 128A39.71 39.71 0 0 1 64 88.32h51.2V64H64a64 64 0 0 0 0 128h51.2v-24.32H64A39.71 39.71 0 0 1 24.32 128zm52.48 12.8h102.4v-25.6H76.8zM192 64h-51.2v24.32H192a39.68 39.68 0 0 1 0 79.36h-51.2V192H192a64 64 0 0 0 0-128z"/></symbol><symbol id="linkedin" viewBox="0 0 256 256"><path d="M4.69 85.26h53.25v170.5H4.69z"/><circle cx="31.32" cy="31.56" r="31.32"/><path d="M256 255.76h-53.25v-96.7s1.82-30.85-27.38-31.59-31 31.59-31 31.59v96.7H91.11V85.26h53.25v20.54S160.48 81 192.26 81c41.79 0 49 19.83 53.93 27s9.81 25.69 9.81 51.06z"/></symbol><symbol id="location" viewBox="0 0 256 256"><path d="M128 128a40 40 0 1 1 40-40 39.61 39.61 0 0 1-40 40zm0-128a87.75 87.75 0 0 0-88 88c0 48.8 88 168 88 168s88-119.2 88-168a87.75 87.75 0 0 0-88-88z"/></symbol><symbol id="menu" viewBox="0 0 256 256"><path d="M256 185.6V224H0v-38.4zm0-76.8v38.4H0v-38.4zm0-76.8v38.4H0V32z"/></symbol><symbol id="messages" viewBox="0 0 256 256"><path d="M171.51 39.85a57.17 57.17 0 1 1 0 114.34h-61.63l-3.81 5.09-23.49 31.39v-36.48h-12.7a57.17 57.17 0 1 1 0-114.34h101.63m0-12.71H69.88a69.88 69.88 0 0 0 0 139.76v62l46.36-62h55.27a69.88 69.88 0 0 0 0-139.76z"/><path d="M96 141.44a46.33 46.33 0 0 0 46.33 46.33h36.65l30.74 41.09v-41.09a46.33 46.33 0 0 0 0-92.66h-67.44A46.33 46.33 0 0 0 96 141.44z"/></symbol><symbol id="mobile" viewBox="0 0 256 256"><path d="M180.54 0H75.46A24.26 24.26 0 0 0 51.2 24.25v207.5A24.26 24.26 0 0 0 75.46 256h105.08a24.26 24.26 0 0 0 24.26-24.25V24.25A24.26 24.26 0 0 0 180.54 0M159 228.25H97v-16.18h62zm29.65-40.72H67.35V55.76h121.27z"/></symbol><symbol id="menu-items" viewBox="0 0 256 256"><path d="M0 185.6h38.4V224H0zm57.6 0H256V224H57.6zM0 108.8h38.4v38.4H0zm57.6 0H256v38.4H57.6zM0 32h38.4v38.4H0zm57.6 0H256v38.4H57.6z"/></symbol><symbol id="phone-tf" viewBox="0 0 256 256"><path d="M228 195.82l-13.65 33.59a12.62 12.62 0 0 1-10.07 8.1 15.37 15.37 0 0 1-4.12.12c-46.76-6.39-89.63-28.63-120.9-62.69C45.5 138.1 27.43 90.77 27 38.11a13.25 13.25 0 0 1 11-13.23l37.91-6.39a12.86 12.86 0 0 1 14.76 8.92l13.36 37.77a14.09 14.09 0 0 1-3.03 13.9l-.33.36-20.16 17.29a9.47 9.47 0 0 0-2.87 11.37c12.45 29.81 39.82 56 61.32 70.7a10.72 10.72 0 0 0 7.69 1.56 11.6 11.6 0 0 0 5.26-2.38L169 161.74a12.59 12.59 0 0 1 7-3.72 12.46 12.46 0 0 1 8.89 1.8l36.35 19.35a11.51 11.51 0 0 1 6.38 5.79 13.12 13.12 0 0 1 .38 10.86z"/><path d="M141.74 84.6h-19.5V73.11h53.11V84.6h-19.5v49.45h-14.11zm55.31-.17v16.11h28.21v11.32h-28.21v22.19H183V73.11h46v11.32z"/></symbol><symbol id="phone" viewBox="0 0 256 256"><path d="M228 195.82l-13.65 33.59a12.62 12.62 0 0 1-10.07 8.1 15.37 15.37 0 0 1-4.12.12c-46.76-6.39-89.63-28.63-120.9-62.69C45.5 138.1 27.43 90.77 27 38.11a13.25 13.25 0 0 1 11-13.23l37.91-6.39a12.86 12.86 0 0 1 14.76 8.92l13.36 37.77a14.09 14.09 0 0 1-3.03 13.9l-.33.36-20.16 17.29a9.47 9.47 0 0 0-2.87 11.37c12.45 29.81 39.82 56 61.32 70.7a10.72 10.72 0 0 0 7.69 1.56 11.6 11.6 0 0 0 5.26-2.38L169 161.74a12.59 12.59 0 0 1 7-3.72 12.46 12.46 0 0 1 8.89 1.8l36.35 19.35a11.51 11.51 0 0 1 6.38 5.79 13.12 13.12 0 0 1 .38 10.86z"/></symbol><symbol id="right-indicator" viewBox="0 0 256 256"><path d="M81.23 256l-27.15-27.15L154.93 128 54.08 27.15 81.23 0 196 114.81a18.63 18.63 0 0 1 .84 26.32c-.27.29-.55.56-.84.83z"/></symbol><symbol id="search" viewBox="0 0 256 256"><path d="M227.87 200.72l-56.35-56.35a77 77 0 1 0-27.15 27.15l56.35 56.35zm-150-68.22a38.64 38.64 0 1 1 54.65 0 38.65 38.65 0 0 1-54.67 0z"/></symbol><symbol id="settings" viewBox="0 0 256 256"><path d="M256 142.05V114l-36.06-12.31a95.06 95.06 0 0 0-8.29-20l16.8-34.21-19.88-19.93-34.21 16.8a95.06 95.06 0 0 0-20-8.29L142.05 0H114l-12.36 36.06a95.06 95.06 0 0 0-20 8.29l-34.21-16.8-19.88 19.88 16.8 34.21a95.06 95.06 0 0 0-8.29 20L0 114v28.1l36.06 12.31a95.06 95.06 0 0 0 8.29 20l-16.8 34.21 19.88 19.88 34.21-16.8a95.06 95.06 0 0 0 20 8.29L114 256h28.1l12.31-36.06a95.06 95.06 0 0 0 20-8.29l34.21 16.8 19.88-19.88-16.8-34.21a95.06 95.06 0 0 0 8.29-20zM169.16 128A41.16 41.16 0 1 1 128 86.84 41.16 41.16 0 0 1 169.16 128z"/></symbol><symbol id="twitter" viewBox="0 0 256 256"><path d="M128 79.62c-7.27-58.28 63.9-80.11 91.77-36.72 19.47-10.28 23.78-13.07 27.7-14.62-5 19.7-18.25 31.07-22.76 33.44L256 51.61C245.56 74 230.53 79.83 230.53 79.83 236.31 176.1 138 284.7 0 212.43c48.23 3.07 74.39-20.66 74.39-20.66-28.56.78-49.94-25.84-49.18-35.31 14.43 4.38 33.3 6.28 41.53.7-48.65-16-58.28-46.08-58.95-59.65 7.07 2.84 14.92 6.25 24.07 7.57C-2.81 82.24 6.56 48.87 15.58 37 50.72 82.62 128 79.62 128 79.62z"/></symbol><symbol id="up-indicator" viewBox="0 0 256 256"><path d="M256 174.77l-27.15 27.15L128 101.07 27.15 201.92 0 174.77 114.81 60a18.63 18.63 0 0 1 26.32-.84c.29.27.56.55.83.84z"/></symbol><symbol id="share" viewBox="0 0 256 256"><path d="M49.94 166.07a37.82 37.82 0 0 0 28.69-13.16l91.17 52.64a38 38 0 1 0 7.1-12.3l-91.17-52.63a37.44 37.44 0 0 0 0-24.94L176.9 63a38.17 38.17 0 1 0-7.09-12.3l-91.18 52.69A37.91 37.91 0 1 0 50 166.07z"/></symbol><symbol id="plus" viewBox="0 0 256 256"><path d="M108.8 0h38.4v256h-38.4z"/><path d="M256 108.8v38.4H0v-38.4z"/></symbol><symbol id="snapchat" viewBox="0 0 256 256"><path d="M56.93 83.44h.55c.37 6.58.68 13.17 1.16 19.75.15 2-.67 3.09-2.51 2.8-3.92-.61-8-1.1-11.64-2.45a14.91 14.91 0 0 0-13.21.94c-7 4-7.74 11.54-1.32 16.38 3.22 2.43 7.11 4 10.83 5.7 3.47 1.57 7.24 2.51 10.66 4.18 5.52 2.69 6.93 6.5 4.31 12a99.51 99.51 0 0 1-7.74 14C37.52 172.1 24 183.11 5.24 186.76c-4.92 1-6.65 5.54-4 10a16 16 0 0 0 9.36 6.74c7.11 2.17 14.33 4 21.57 5.7 1.8.43 2.6 1.12 3 2.83.59 2.8 1.3 5.58 2.06 8.34 1.22 4.36 3.47 6 8 5.64 3-.26 6-1 9-1.46 12.39-2.11 24-.69 34.21 7.39 2.84 2.25 5.88 4.27 8.93 6.24 18.48 11.92 37.54 13 57 2.55a108.64 108.64 0 0 0 13.82-9.23c9.1-6.9 19.33-8.77 30.37-7.43 3.88.47 7.72 1.3 11.61 1.74 4.9.56 7.33-1.16 8.64-5.91.71-2.57 1.36-5.17 1.88-7.79.38-1.86 1.35-2.49 3.22-2.94 7.59-1.85 15.24-3.63 22.59-6.22a19.21 19.21 0 0 0 8.13-6.4c3.07-4 .82-8.59-4.1-9.76a74.69 74.69 0 0 1-9.38-2.58c-19.6-7.43-32.17-22-40.83-40.5-3-6.38-1.53-10.28 4.89-13.25 3.28-1.51 6.81-2.49 10.21-3.74 4.51-1.67 8.93-3.52 12.17-7.27 3.93-4.57 3.39-10.21-1.47-13.76s-9.87-4.54-15.65-2.11a47.45 47.45 0 0 1-10.47 2.58c-2.13.37-3.05-.7-2.91-3.24.6-10.58 1.21-21.19 1.23-31.78.06-22.67-9.91-40.46-28.73-52.45C143.84 2.29 116.64 2.21 90 16.17a58.19 58.19 0 0 0-31 41.61c-1.69 8.36-1.46 17.1-2.07 25.66z"/></symbol><symbol id="vimeo" viewBox="0 0 256 256"><path d="M255.88 68.4q-1.71 37.44-52.21 102.54-52.21 68-88.35 68-22.36 0-37.86-41.4L56.8 121.61q-11.49-41.39-24.66-41.4-2.88 0-20.09 12.08L0 76.74q18.95-16.68 37.36-33.38 25.28-21.88 37.93-23 29.89-2.87 36.79 40.94 7.45 47.28 10.35 58.79 8.61 39.21 19 39.2 8 0 24.13-25.44t17.24-38.73q2.29-22-17.24-22a47.88 47.88 0 0 0-18.94 4.2q18.87-61.93 72.1-60.2 39.42 1.16 37.16 51.28z"/></symbol><symbol id="website" viewBox="0 0 256 256"><path d="M128 0a128 128 0 1 0 128 128A128.14 128.14 0 0 0 128 0zM17.13 136.39h44a232.55 232.55 0 0 0 4.52 39.2H27.5a110.16 110.16 0 0 1-10.37-39.2zm119.26-56h37.74a215.52 215.52 0 0 1 4.8 39.2h-42.54zm0-16V18.07c12.83 5.12 25.27 21.62 33.38 46.33zm-16.78-46.32V64.4H86.23c8.11-24.71 20.55-41.21 33.38-46.33zm0 62.34v39.2H77.07a215.52 215.52 0 0 1 4.8-39.2zm-58.48 39.2h-44a110.16 110.16 0 0 1 10.37-39.2h38.15a232.55 232.55 0 0 0-4.52 39.2zm15.94 16.78h42.54v39.2H81.87a215.63 215.63 0 0 1-4.8-39.2zm42.54 55.21v46.33c-12.83-5.12-25.27-21.62-33.38-46.33zm16.78 46.33V191.6h33.38c-8.11 24.71-20.55 41.21-33.38 46.33zm0-62.34v-39.2h42.54a215.63 215.63 0 0 1-4.8 39.2zm58.48-39.2h44a110.16 110.16 0 0 1-10.37 39.2h-38.15a232.55 232.55 0 0 0 4.52-39.2zm0-16.78a232.55 232.55 0 0 0-4.52-39.2h38.15a110.16 110.16 0 0 1 10.37 39.2zm24.29-55.21h-32.8c-4.76-16.06-11.3-29.84-19.14-40.46a111.81 111.81 0 0 1 51.94 40.46zM88.78 23.94C80.94 34.56 74.4 48.34 69.64 64.4h-32.8a111.81 111.81 0 0 1 51.94-40.46zM36.84 191.6h32.8c4.76 16.06 11.3 29.84 19.14 40.46a111.81 111.81 0 0 1-51.94-40.46zm130.38 40.46c7.84-10.62 14.38-24.4 19.14-40.46h32.8a111.81 111.81 0 0 1-51.94 40.46z"/></symbol><symbol id="xd" viewBox="0 0 256 256"><path d="M210.66 3.2H45.34A45.3 45.3 0 0 0 0 48.46v159a45.3 45.3 0 0 0 45.26 45.34h165.4A45.3 45.3 0 0 0 256 207.54v-159A45.3 45.3 0 0 0 210.74 3.2zM137 178.91c-.11.43-.54.11-1.18.21h-24.46c-1.71 0-2.88-.11-3.63-1.17-2.23-4.48-4.59-8.85-6.83-13.34s-4.69-8.85-7.24-13.43S88.54 142 86 137.31h-.21c-2.24 4.58-4.69 9.17-7.15 13.76s-4.9 9.17-7.26 13.65-4.9 9.07-7.36 13.44c-.42 1.07-1.27 1.17-2.45 1.17H38.09c-.43 0-.75.21-.75-.32a1.47 1.47 0 0 1 .21-1.17l33.17-54.4-32.31-54.72c-.32-.43-.43-.85-.21-1.07a1.24 1.24 0 0 1 1.07-.43h24.21a6.23 6.23 0 0 1 1.49.21 2.94 2.94 0 0 1 1.07 1c2 4.59 4.38 9.18 6.83 13.76s5 9.07 7.68 13.55 4.9 9 7.15 13.55h.21c2.23-4.7 4.58-9.28 6.93-13.76s4.8-9 7.25-13.44 4.81-9.06 7.15-13.44a1.83 1.83 0 0 1 .64-1.07 2 2 0 0 1 1.39-.21h22.5a1 1 0 0 1 1.18.75c.11.11-.11.53-.32.75l-32 52.8 34.14 56a1.88 1.88 0 0 1 .23 1.24zm80.73-4.16a81.45 81.45 0 0 1-17.38 5.12 94.17 94.17 0 0 1-16.42 1.5 53.13 53.13 0 0 1-23-4.8 37.2 37.2 0 0 1-16.11-14.51 46.14 46.14 0 0 1-5.82-24.32 43.74 43.74 0 0 1 5.87-22.5 44.34 44.34 0 0 1 17-16.54 54.7 54.7 0 0 1 27-6.19 21 21 0 0 1 2.24.11c1 .11 2 .11 3.3.21V59.11c0-.75.32-1.18 1.07-1.18H217a1 1 0 0 1 1.07.75v101.75c0 1.92.11 4.06.21 6.4s.32 4.37.43 6.19a1.73 1.73 0 0 1-1 1.7zm-29.76-62.4a26.25 26.25 0 0 0-12.05 2.78 24 24 0 0 0-9.06 7.89 23.62 23.62 0 0 0-3.53 13.55 29.78 29.78 0 0 0 1.82 11 20.82 20.82 0 0 0 4.8 7.58 18.48 18.48 0 0 0 7.26 4.26 27.78 27.78 0 0 0 8.86 1.39c1.59 0 3.09-.11 4.48-.21a9.14 9.14 0 0 0 3.84-.53v-46.94a28.37 28.37 0 0 0-2.87-.53 25 25 0 0 0-3.54-.27z"/></symbol><symbol id="youtube" viewBox="0 0 256 256"><path d="M211.52 217.06h-167A44.48 44.48 0 0 1 0 172.58V83.42a44.48 44.48 0 0 1 44.48-44.48h167A44.48 44.48 0 0 1 256 83.42v89.16a44.48 44.48 0 0 1-44.48 44.48zm-41.85-91.56l-68-36.09v72.19z"/></symbol><symbol id="library-copy" viewBox="0 0 256 256"><path d="M24.32 128A39.71 39.71 0 0 1 64 88.32h51.2V64H64a64 64 0 0 0 0 128h51.2v-24.32H64A39.71 39.71 0 0 1 24.32 128zm52.48 12.8h102.4v-25.6H76.8zM192 64h-51.2v24.32H192a39.68 39.68 0 0 1 0 79.36h-51.2V192H192a64 64 0 0 0 0-128z"/></symbol></svg>